<svg width="16" height="17" viewBox="0 0 16 17" fill="none" xmlns="http://www.w3.org/2000/svg">
<path d="M1 10C1 8.11438 1 7.17157 1.58579 6.58579C2.17157 6 3.11438 6 5 6H10.3333C12.219 6 13.1618 6 13.7475 6.58579C14.3333 7.17157 14.3333 8.11438 14.3333 10V10C14.3333 12.8284 14.3333 14.2426 13.4547 15.1213C12.576 16 11.1618 16 8.33333 16H7C4.17157 16 2.75736 16 1.87868 15.1213C1 14.2426 1 12.8284 1 10V10Z" stroke="#FF57FF" stroke-width="2"/>
<path d="M11.0007 5.16667V4.33333C11.0007 2.49239 9.50827 1 7.66732 1V1C5.82637 1 4.33398 2.49239 4.33398 4.33333V5.16667" stroke="#FF57FF" stroke-width="2" stroke-linecap="round"/>
<circle cx="7.66667" cy="11.0002" r="1.66667" fill="#FF57FF"/>
</svg>
