<svg width="15" height="16" viewBox="0 0 15 16" fill="none" xmlns="http://www.w3.org/2000/svg">
<path d="M9.375 12.375C9.375 11.3395 10.2145 10.5 11.25 10.5C12.2855 10.5 13.125 11.3395 13.125 12.375C13.125 13.4105 12.2855 14.25 11.25 14.25C10.2145 14.25 9.375 13.4105 9.375 12.375Z" stroke="white" stroke-width="1.25"/>
<path d="M1.875 8C1.875 6.96447 2.71447 6.125 3.75 6.125C4.78553 6.125 5.625 6.96447 5.625 8C5.625 9.03553 4.78553 9.875 3.75 9.875C2.71447 9.875 1.875 9.03553 1.875 8Z" stroke="white" stroke-width="1.25"/>
<path d="M9.375 3.625C9.375 2.58947 10.2145 1.75 11.25 1.75C12.2855 1.75 13.125 2.58947 13.125 3.625C13.125 4.66053 12.2855 5.5 11.25 5.5C10.2145 5.5 9.375 4.66053 9.375 3.625Z" stroke="white" stroke-width="1.25"/>
<path d="M10 11.75L5 8.9375" stroke="white" stroke-width="1.25"/>
<path d="M10 4.25L5 7.0625" stroke="white" stroke-width="1.25"/>
</svg>
